<svg xmlns="http://www.w3.org/2000/svg" width="170" height="80" fill="none" viewBox="0 0 170 80"><g clip-path="url(#a)"><g opacity=".6"><mask id="b" width="58" height="70" x="1.945" y="5.361" fill="#000" maskUnits="userSpaceOnUse"><path fill="#fff" d="M1.945 5.361h58v70h-58z"/><path d="m40.128 15.535 6.258-6.064-1.287 9.44 11.546 7.84-16.22 25.872 18.164-7.334.167.416-18.42 7.415 14.008 10.399-19.903-6.798-.832 17.712-.224-.012-.21.104-7.23-14.824-13.42 4.978-.078-.21-.215.085-8.156-20.509 14.719 5.125-15.01-16.05-.84-.174.795-.225 7.887-16.472 20.679 6.488L26.619 6.36zM26.37 59.542l6.827 13.998.791-16.823zm-13.952 4.254 3.553-10.805.43.14-3.606 10.964 12.95-4.803-2.983-6.118.406-.198 3.003 6.158 7.459-2.765-14.14-6.482-14.628-5.09zm22.349-7.44 16.967 5.793-11.872-8.79zm8.576-25.377L31.65 38.792v8.699l2.711 8.578 5.107-3.003-.05-.036.292-.118 16.111-25.704zm-23.624 18.52 14.142 6.478-2.662-8.45v-8.671L4.548 33.281zm3.92-21.924L4.846 32.882l26.376 5.515 1.19-14.951zm8.05 10.646 11.181-7.464-10.013-7.253zM4.317 32.56l19.17-5.4 8.559-4.032-20.179-6.33zm39.21-2.107 12.291-3.717-10.788-7.323zm-10.51-7.391 10.074 7.3 1.528-11.229-4.438-3.013zm-.256-.388 7.034-6.816L27.49 7.504zm7.753-6.877 4.173 2.835 1.08-7.925z"/></mask><path fill="#8ec4c8" d="m40.128 15.535 6.258-6.064-1.287 9.44 11.546 7.84-16.22 25.872 18.164-7.334.167.416-18.42 7.415 14.008 10.399-19.903-6.798-.832 17.712-.224-.012-.21.104-7.23-14.824-13.42 4.978-.078-.21-.215.085-8.156-20.509 14.719 5.125-15.01-16.05-.84-.174.795-.225 7.887-16.472 20.679 6.488L26.619 6.36zM26.37 59.542l6.827 13.998.791-16.823zm-13.952 4.254 3.553-10.805.43.14-3.606 10.964 12.95-4.803-2.983-6.118.406-.198 3.003 6.158 7.459-2.765-14.14-6.482-14.628-5.09zm22.349-7.44 16.967 5.793-11.872-8.79zm8.576-25.377L31.65 38.792v8.699l2.711 8.578 5.107-3.003-.05-.036.292-.118 16.111-25.704zm-23.624 18.52 14.142 6.478-2.662-8.45v-8.671L4.548 33.281zm3.92-21.924L4.846 32.882l26.376 5.515 1.19-14.951zm8.05 10.646 11.181-7.464-10.013-7.253zM4.317 32.56l19.17-5.4 8.559-4.032-20.179-6.33zm39.21-2.107 12.291-3.717-10.788-7.323zm-10.51-7.391 10.074 7.3 1.528-11.229-4.438-3.013zm-.256-.388 7.034-6.816L27.49 7.504zm7.753-6.877 4.173 2.835 1.08-7.925z"/><path fill="#8ec4c8" d="m40.128 15.535-.127.187.152.103.132-.128zm6.258-6.064.224.03.088-.647-.47.455zm-1.287 9.44-.224-.03-.02.138.117.079zm11.546 7.84.191.12.116-.184-.18-.123zm-16.22 25.872-.19-.12-.371.59.646-.26zm18.164-7.334.21-.085-.085-.21-.21.085zm.167.416.084.21.21-.085-.084-.21zm-18.42 7.415-.084-.21-.374.15.324.241zm14.008 10.399-.073.214.207-.395zM34.44 56.721l.073-.214-.284-.097-.014.3zm-.832 17.712-.011.226.227.012.01-.227zm-.224-.012.012-.225-.06-.003-.052.026zm-.21.104-.203.099.1.204.203-.1zM25.945 59.7l.203-.1-.09-.184-.192.072zm-13.42 4.978-.212.079.079.212.212-.079zm-.078-.21.212-.08-.08-.217-.216.086zm-.215.085-.21.084.084.21.21-.084zM4.076 44.045l.075-.213-.468-.163.183.46zm14.719 5.125-.074.214.239-.368zM3.785 33.12l.164-.154-.049-.052-.07-.015zm-.84-.174-.061-.218.015.44zm.795-.225.062.218.098-.028.044-.092zm7.887-16.472.068-.216-.187-.059-.085.177zm20.679 6.488-.068.216.429.134-.148-.424zM26.619 6.36l.127-.187-.564-.383.224.644zm-.249 53.181-.079-.212-.233.087.109.225zm6.827 13.998-.203.1.43-.089zm.791-16.823.226.01.016-.34-.32.118zm-21.57 7.08-.21.083.23.579.195-.592zm3.553-10.806.07-.215-.215-.07-.07.214zm.43.14.214.071.07-.215-.214-.07zm-3.606 10.964-.215-.07-.146.445.44-.163zm12.95-4.803.079.212.234-.086-.11-.225zm-2.983-6.118-.1-.203-.203.1.1.202zm.406-.198.203-.099-.099-.203-.203.099zm3.003 6.158-.203.1.09.183.192-.07zm7.459-2.765.078.212.513-.19-.497-.228zm-14.14-6.482.094-.205-.01-.005-.01-.003zm-14.628-5.09.075-.214-.468-.163.183.46zm29.905 11.56-.115-.195-.425.25.467.159zm16.967 5.792-.073.214.208-.396zm-11.872-8.79.135-.18-.12-.09-.13.076zm3.48-22.38-.065-.216-.032.01-.028.018zm-11.69 7.813-.126-.187-.1.067v.12zm0 8.699h-.227v.035l.01.033zm2.71 8.578-.215.068.085.27.245-.143zm5.107-3.003.114.195.298-.175-.28-.203zm-.05-.036-.085-.21-.378.153.33.24zm.292-.118.085.21.068-.028.039-.062zm16.111-25.704.192.12.32-.511-.577.174zM19.72 49.5l-.165.154.03.032.04.019zm14.142 6.477-.094.206.463.212-.153-.486zm-2.662-8.45h-.226v.035l.01.033zm0-8.671h.226v-.184l-.18-.037zM4.548 33.281l.046-.221-.7-.147.489.522zm19.092-5.706.061.217.018-.005.017-.008zM4.845 32.882l-.062-.217.015.439zm26.376 5.515-.047.221.252.053.02-.256zm1.19-14.951.224.018.031-.389-.352.166zm-.723 14.775-.225-.018-.037.465.388-.259zm11.182-7.464.126.188.27-.18-.263-.19zm-10.013-7.253.133-.183-.326-.236-.032.401zM4.317 32.56l-.203-.098-.216.451.48-.135zm19.17-5.4.06.217.019-.005.017-.008zm8.559-4.032.096.204.524-.247-.552-.173zm-20.179-6.33.068-.216-.187-.059-.085.177zm31.66 13.655-.225-.03-.047.348.337-.102zm12.291-3.717.066.216.453-.137-.392-.266zM45.03 19.412l.127-.187-.301-.205-.05.361zM33.018 23.06l-.158-.162-.193.187.218.158zm10.073 7.3-.133.183.306.221.05-.374zm1.528-11.229.224.03.019-.138-.116-.079zm-4.438-3.013.127-.187-.153-.104-.132.128zm-7.42 6.554-.214.075.117.334.254-.246zm7.034-6.816.157.162.2-.193-.23-.156zM27.49 7.504l.127-.187-.564-.383.224.645zm13.023 8.292-.158-.162-.2.193.23.156zm4.173 2.835-.127.187.302.205.05-.361zm1.08-7.925.224.03.088-.648-.47.455zm-5.64 4.829.158.162 6.258-6.063-.157-.163-.158-.162-6.257 6.063zm6.259-6.064-.224-.03-1.287 9.44.224.03.224.03 1.287-9.44zm-1.287 9.44-.127.187 11.545 7.84.127-.186.128-.188-11.546-7.84zm11.546 7.84-.192-.12-16.219 25.871.192.12.191.12 16.22-25.87zm-16.22 25.872.085.21 18.164-7.335-.085-.21-.085-.209-18.163 7.334zm18.164-7.334-.21.084.167.416.21-.084.21-.085-.167-.416zm.167.416-.085-.21-18.418 7.415.084.21.084.21 18.42-7.416zm-18.42 7.415-.134.181 14.007 10.4.135-.182.134-.181-14.006-10.4zm14.008 10.399.073-.214-19.903-6.798-.073.214-.073.214 19.903 6.798zM34.44 56.721l-.225-.01-.832 17.712.225.01.226.01.832-17.711zm-.832 17.712.012-.226-.224-.011-.012.225-.012.226.225.012zm-.224-.012-.1-.202-.21.103.1.203.1.203.21-.104zm-.21.104.203-.1-7.23-14.823-.204.099-.203.099 7.23 14.824zM25.945 59.7l-.08-.212-13.418 4.978.078.212.079.212 13.419-4.978zm-13.42 4.978.212-.078-.078-.211-.212.078-.212.079.078.21zm-.078-.21-.084-.21-.214.085.083.21.084.21.215-.086zm-.215.085.21-.083-8.156-20.51-.21.084-.21.084 8.156 20.509zM4.076 44.045l-.074.214 14.719 5.125.074-.214.074-.213-14.718-5.125zm14.719 5.125.165-.154-15.01-16.05-.166.155-.165.154 15.01 16.05zM3.785 33.12l.045-.22-.839-.175-.046.22-.046.222.84.175zm-.84-.174.062.217.795-.224-.062-.218-.061-.217-.795.224zm.795-.225.204.098 7.887-16.473-.204-.098-.204-.097-7.887 16.473zm7.887-16.472-.068.215 20.679 6.489.068-.216.067-.216-20.678-6.488zm20.679 6.488.213-.074-5.686-16.376-.214.074-.213.074 5.686 16.376zM26.619 6.36l-.127.187 13.509 9.174.127-.187.127-.187-13.509-9.174zm-.249 53.181-.203.1 6.827 13.998.203-.1.203-.099-6.827-13.998zm6.827 13.998.226.011.791-16.823-.226-.01-.225-.011-.791 16.823zm.791-16.823-.078-.212-7.618 2.825.078.212.079.212 7.618-2.825zm-21.57 7.08.215.07 3.553-10.806-.215-.07-.215-.07-3.553 10.805zm3.553-10.806-.07.215.43.14.07-.215.07-.215-.43-.14zm.43.14-.215-.07-3.606 10.964.215.07.215.07 3.605-10.963zm-3.606 10.964.079.212 12.95-4.803-.079-.212-.079-.212-12.95 4.803zm12.95-4.803.203-.099-2.983-6.118-.203.1-.204.098 2.984 6.119zm-2.983-6.118.099.203.406-.198-.099-.203-.1-.203-.405.198zm.406-.198-.203.1 3.003 6.157.203-.099.203-.099-3.003-6.158zm3.003 6.158.079.212 7.459-2.765-.08-.212-.078-.212-7.459 2.765zm7.459-2.765.094-.206-14.14-6.481-.095.205-.094.206 14.14 6.481zm-14.14-6.482.074-.213-14.627-5.091-.075.213-.074.214 14.627 5.09zm-14.628-5.09-.21.083 7.556 19 .21-.084.21-.083-7.556-19zm29.905 11.56-.073.214 16.967 5.792.073-.214.073-.214-16.967-5.792zm16.967 5.792.135-.182-11.872-8.789-.135.182-.134.182L51.6 62.33zm-11.872-8.79-.114-.194-5.096 2.997.115.195.114.195 5.096-2.997zm3.48-22.38-.125-.188-11.691 7.814.125.188.126.187 11.691-7.813zm-11.69 7.813h-.227v8.699h.452v-8.699zm0 8.699-.216.068 2.71 8.578.216-.068.216-.068-2.711-8.578zm2.71 8.578.115.195 5.106-3.003-.114-.195-.115-.195-5.106 3.003zm5.107-3.003.133-.183-.05-.036-.133.183-.133.183.05.036zm-.05-.036.085.21.292-.119-.085-.21-.085-.209-.292.118zm.292-.118.192.12 16.11-25.704-.19-.12-.192-.12-16.112 25.704zm16.111-25.704-.065-.217-12.48 3.772.066.216.065.216 12.48-3.771zM19.72 49.5l-.094.205 14.142 6.478.094-.206.095-.205-14.143-6.478zm14.142 6.477.216-.068-2.662-8.45-.216.068-.215.068 2.662 8.45zm-2.662-8.45h.226v-8.671h-.452v8.67zm0-8.671.046-.221-26.65-5.575-.047.22-.046.222 26.65 5.575zM4.548 33.281l-.165.154 15.17 16.219.166-.155.165-.154L4.713 33.126zm19.092-5.706-.062-.218-18.795 5.308.062.217.061.218 18.795-5.308zM4.845 32.882l-.047.222 26.376 5.514.047-.221.046-.221L4.891 32.66zm26.376 5.515.225.018 1.19-14.951-.226-.018-.225-.018-1.19 14.951zm1.19-14.951-.097-.205-8.77 4.13.096.204.096.204 8.77-4.129zm-.723 14.775.126.188 11.182-7.464-.126-.188-.125-.188-11.182 7.464zm11.182-7.464.133-.183-10.013-7.253-.133.183-.132.183 10.012 7.253zm-10.013-7.253-.225-.018-1.169 14.717.226.018.225.018 1.169-14.717zM4.317 32.56l.062.218 19.169-5.4-.062-.218-.061-.218-19.169 5.4zm19.17-5.4.096.204 8.56-4.032-.097-.204-.096-.205-8.56 4.032zm8.559-4.032.068-.216-20.18-6.33-.067.215-.068.216 20.18 6.33zm-20.179-6.33-.204-.098-7.55 15.762.204.098.204.098 7.55-15.763zm31.66 13.655.065.216 12.292-3.717-.066-.216-.065-.216-12.292 3.716zm12.291-3.717.127-.187-10.788-7.323-.127.187-.127.187 10.788 7.323zM45.03 19.412l-.224-.03-1.504 11.04.224.03.224.03 1.504-11.04zM33.018 23.06l-.133.183 10.073 7.3.133-.183.133-.183-10.074-7.3zm10.073 7.3.224.03 1.528-11.228-.224-.03-.224-.031-1.528 11.228zm1.528-11.229.127-.187-4.438-3.013-.127.187-.127.187 4.438 3.013zm-4.438-3.013-.158-.163L32.86 22.9l.158.162.157.162 7.163-6.942zm-7.42 6.554.157.163 7.034-6.817-.157-.162-.157-.162-7.035 6.816zm7.034-6.816.127-.187-12.304-8.353-.127.187-.127.187 12.304 8.353zM27.49 7.504l-.213.075 5.27 15.169.213-.075.213-.074-5.27-15.169zm13.023 8.292-.127.187 4.173 2.835.127-.187.128-.187-4.174-2.835zm4.173 2.835.224.03 1.08-7.925-.224-.03-.224-.03-1.08 7.925zm1.08-7.925-.158-.163-5.253 5.091.158.162.157.163 5.253-5.091z" mask="url(#b)"/></g><path fill="#8ec4c8" d="M27.06 11.678a4.747 4.747 0 1 0 0-9.495 4.747 4.747 0 0 0 0 9.495M56.336 31.15a4.336 4.336 0 1 0 0-8.67 4.336 4.336 0 0 0 0 8.67M12.45 68.637a4.169 4.169 0 1 0 0-8.338 4.169 4.169 0 0 0 0 8.338M33.384 78.425a4.001 4.001 0 1 0 0-8.003 4.001 4.001 0 0 0 0 8.003M53.046 66.919a4.1 4.1 0 1 0 0-8.202 4.1 4.1 0 0 0 0 8.202M3.902 36.816a3.902 3.902 0 1 0 0-7.804 3.902 3.902 0 0 0 0 7.804M4.472 46.424a2.003 2.003 0 1 0 0-4.006 2.003 2.003 0 0 0 0 4.006M32.67 24.713a1.623 1.623 0 1 0 0-3.247 1.623 1.623 0 0 0 0 3.247M34.234 58.147a1.75 1.75 0 1 0 0-3.499 1.75 1.75 0 0 0 0 3.5M11.75 19.228a2.704 2.704 0 1 0 0-5.407 2.704 2.704 0 0 0 0 5.407M46.087 12.79a2.704 2.704 0 1 0 0-5.408 2.704 2.704 0 0 0 0 5.408"/><path fill="#8ec4c8" d="M27.06 11.678a4.747 4.747 0 1 0 0-9.495 4.747 4.747 0 0 0 0 9.495M56.336 31.15a4.336 4.336 0 1 0 0-8.67 4.336 4.336 0 0 0 0 8.67M12.45 68.637a4.169 4.169 0 1 0 0-8.338 4.169 4.169 0 0 0 0 8.338M33.384 78.425a4.001 4.001 0 1 0 0-8.003 4.001 4.001 0 0 0 0 8.003M53.046 66.919a4.1 4.1 0 1 0 0-8.202 4.1 4.1 0 0 0 0 8.202M3.902 36.816a3.902 3.902 0 1 0 0-7.804 3.902 3.902 0 0 0 0 7.804M4.472 46.424a2.003 2.003 0 1 0 0-4.006 2.003 2.003 0 0 0 0 4.006M32.67 24.713a1.623 1.623 0 1 0 0-3.247 1.623 1.623 0 0 0 0 3.247M34.234 58.147a1.75 1.75 0 1 0 0-3.499 1.75 1.75 0 0 0 0 3.5M11.75 19.228a2.704 2.704 0 1 0 0-5.407 2.704 2.704 0 0 0 0 5.407M46.087 12.79a2.704 2.704 0 1 0 0-5.408 2.704 2.704 0 0 0 0 5.408"/><path fill="#fff" d="M46.65 26.928H39.3a.45.45 0 0 0-.371.19l-7.506 10.765-7.51-10.765a.45.45 0 0 0-.37-.19h-7.357a.45.45 0 0 0-.452.452v25.69a.45.45 0 0 0 .452.452h6.782a.45.45 0 0 0 .453-.452V38.2l7.645 9.625a.453.453 0 0 0 .71 0L39.42 38.2v14.889a.45.45 0 0 0 .453.452h6.781a.45.45 0 0 0 .453-.452V27.38a.45.45 0 0 0-.457-.452M50.64 53.753V38.76h10.273v2.808H54.28v3.26h5.765v2.835H54.28v3.282h6.633v2.808zM63.969 53.753V38.76h6.022q3.825 0 5.62 1.9 1.796 1.898 1.808 5.606 0 3.69-1.808 5.588t-5.62 1.899zm3.64-2.808h1.957q2.021 0 3.066-1.126t1.044-3.553c0-1.646-.348-2.844-1.044-3.586q-1.046-1.112-3.066-1.112h-1.958zM79.938 53.753V38.76h3.64v14.993zM96.697 53.753h3.735L95.124 38.76h-3.979l-5.66 14.993h3.436L90 50.516h5.602zm-5.805-5.914 1.885-5.66 1.917 5.66zM113.557 54.069a18 18 0 0 1-2.071-.113 11 11 0 0 1-1.705-.34 9.6 9.6 0 0 1-1.532-.582V49.57c.697.56 1.491.988 2.342 1.262a7.9 7.9 0 0 0 2.468.425 2.7 2.7 0 0 0 1.587-.394 1.38 1.38 0 0 0 .552-1.202 1.15 1.15 0 0 0-.131-.552 1.15 1.15 0 0 0-.376-.425 4.9 4.9 0 0 0-1.356-.65l-1.867-.643a9 9 0 0 1-1.28-.515 4.4 4.4 0 0 1-1.126-.8 3.5 3.5 0 0 1-.782-1.18 4.4 4.4 0 0 1-.294-1.71c0-.606.113-1.207.335-1.772a4.3 4.3 0 0 1 1.049-1.533 5 5 0 0 1 1.808-1.067 7.7 7.7 0 0 1 2.582-.393 11 11 0 0 1 1.632.113q.69.113 1.357.325.682.228 1.324.552v3.509a8.6 8.6 0 0 0-1.157-.8 8 8 0 0 0-1.357-.62 4.8 4.8 0 0 0-1.46-.267 3.8 3.8 0 0 0-1.234.136c-.334.08-.639.254-.877.502-.22.248-.333.573-.317.904a1.3 1.3 0 0 0 .385.99c.305.27.664.472 1.053.592q.678.237 1.506.507.866.252 1.7.597c.49.203.947.479 1.356.818.393.328.703.745.904 1.216.226.549.333 1.139.317 1.732a4.95 4.95 0 0 1-.629 2.46 4.5 4.5 0 0 1-1.808 1.754c-.9.443-1.896.659-2.898.628M128.392 54.223q-3.459 0-5.182-1.47-1.722-1.469-1.718-4.607V38.76h3.798v9.237q0 1.733.696 2.564.697.832 2.225.832a2.81 2.81 0 0 0 2.17-.832c.515-.556.778-1.41.778-2.564V38.76h3.458v9.386a6.64 6.64 0 0 1-.795 3.428 4.97 4.97 0 0 1-2.193 1.989 7.6 7.6 0 0 1-3.237.66M137.812 53.753V38.76h3.618v14.993zM147.786 53.753V41.545h-4.2v-2.808h12.112v2.808h-4.268v12.207zM157.836 53.753V38.76h10.268v2.808h-6.628v3.26h5.755v2.835h-5.755v3.282h6.628v2.808z"/><path fill="#fff" d="M110.238 25.979h-2.251a2.2 2.2 0 0 0-.251-.776 2 2 0 0 0-.489-.586 2.1 2.1 0 0 0-.688-.37 2.6 2.6 0 0 0-.838-.128q-.817 0-1.423.406-.606.4-.94 1.17-.334.767-.334 1.86 0 1.125.334 1.892.339.765.945 1.156.607.39 1.403.39.447 0 .827-.118a2.2 2.2 0 0 0 .684-.344 2 2 0 0 0 .493-.56q.2-.33.277-.75l2.251.01a4.1 4.1 0 0 1-.437 1.397q-.345.668-.93 1.197-.58.525-1.387.833-.802.303-1.814.303-1.408 0-2.517-.637-1.105-.638-1.747-1.845-.637-1.208-.637-2.923 0-1.722.647-2.929t1.757-1.84q1.11-.636 2.497-.636.915 0 1.696.257.786.256 1.392.75.606.488.986 1.197.386.71.494 1.624m2.174 6.838V22.295h2.224v8.688h4.511v1.834zm10.869 0h-2.384l3.633-10.522h2.867l3.627 10.522h-2.384l-2.636-8.118h-.082zm-.149-4.136h5.631v1.736h-5.631zm9.737 4.136V22.295h4.152q1.191 0 2.034.426.848.422 1.29 1.197.447.771.447 1.814 0 1.048-.452 1.803-.452.75-1.31 1.151-.854.4-2.066.4h-2.779V27.3h2.419q.638 0 1.059-.175.422-.174.627-.524.21-.35.21-.868 0-.524-.21-.884a1.3 1.3 0 0 0-.632-.544q-.422-.19-1.064-.19h-1.5v8.703zm5.683-4.788 2.615 4.788h-2.456l-2.559-4.788zm6.615-5.734v10.522h-2.224V22.295zm4.223 10.522h-2.384l3.633-10.522h2.866l3.628 10.522h-2.384l-2.636-8.118h-.082zm-.149-4.136h5.631v1.736h-5.631zm9.737 4.136V22.295h2.225v4.341h4.516v-4.341h2.219v10.522h-2.219V28.47h-4.516v4.347z" opacity=".6"/></g><defs><clipPath id="a"><path fill="#fff" d="M0 .673h170v79.122H0z"/></clipPath></defs></svg>